<svg width="196" height="48" fill="none" xmlns="http://www.w3.org/2000/svg"><path d="M16.1 7.746H.932V4.498H16.1v3.248zm3.7-3.498h3.973l13.721 35.915h-3.972L19.801 4.248zm38.818 36.505H37.946v-3.43h20.672v3.43zm3.092-16.855c0-3.423.451-6.71 1.354-9.86.918-3.15 2.28-6.011 4.085-8.586C68.954 2.877 70.828 1.06 72.769 0l.857 2.771c-2.197 1.697-4.002 4.286-5.416 7.77-1.4 3.483-2.167 7.382-2.302 11.698l-.023 1.931c0 5.846 1.06 10.92 3.182 15.22 1.28 2.575 2.799 4.59 4.56 6.043L72.768 48c-2.002-1.12-3.912-2.999-5.733-5.634-3.55-5.149-5.326-11.305-5.326-18.468zm33.873-21.56l-3.56 1.21c1.156 2.418 3.79 9.63 4.53 12.281l3.605-1.256c-.785-2.605-3.558-10.002-4.575-12.235zm20.521 2.977l-4.252-1.21c-.924 6.979-3.744 14.423-7.395 19.122-4.668 5.955-11.555 10.42-18.165 12.375l3.19 3.257c6.517-2.327 13.357-7.119 18.118-13.446 3.79-5.024 6.286-11.677 7.672-17.446.185-.744.509-1.861.832-2.652zM82.687 5.13l-3.651 1.35c1.11 2 4.298 9.862 5.177 12.747l3.65-1.35C86.802 14.852 83.89 7.734 82.688 5.13zm50.836 18.995c0 3.377-.444 6.618-1.332 9.723a28.455 28.455 0 01-4.04 8.564c-1.805 2.62-3.701 4.483-5.687 5.588l-.88-2.567c2.317-1.787 4.175-4.558 5.574-8.314 1.415-3.771 2.137-7.951 2.167-12.54v-.727c0-3.18-.331-6.133-.993-8.86-.662-2.74-1.587-5.194-2.776-7.36-1.174-2.165-2.498-3.853-3.972-5.065l.88-2.567c1.986 1.106 3.874 2.953 5.665 5.543a28.514 28.514 0 014.04 8.564c.902 3.12 1.354 6.459 1.354 10.018zm24.035 16.628h-20.673v-3.43h20.673v3.43zm4.085-.59h-3.588l13.721-35.915h3.566l-13.699 35.915zm33.424-32.417h-15.166V4.498h15.166v3.248z" fill="#000"/></svg>