<?xml version="1.0" encoding="utf-8"?><svg viewBox="0 0 76 36" xmlns="http://www.w3.org/2000/svg" xmlns:xlink="http://www.w3.org/1999/xlink"><style>:root>svg{display:none}:root>svg:target{display:block}</style><svg viewBox="0 0 76 36" id="logo" xmlns="http://www.w3.org/2000/svg"><g clip-path="url(#aclip0_1_2463)"><path d="M73.142 11c0 3.21-2.987 6-5.97 6v-6h-1.99v14h1.99v-6c2.985 0 5.97 2.791 5.97 6h1.99c0-3.94-1.99-6-4.747-7 2.757-1 4.747-3.492 4.747-7h-1.99zM8.461 11c0 3.21-2.987 6-5.97 6v-6H.5v14h1.99v-6c2.985 0 5.97 2.791 5.97 6h1.991c0-3.94-1.99-6-4.748-7 2.758-1 4.748-3.492 4.748-7h-1.99zm8.184 1.954l-4.204 11.62 2.207.786s4.23-11.697 4.235-11.714c.107-.323.41-.32.51-.318.202-.001.443.06.55.355l4.223 11.677 2.206-.787-4.203-11.62C21.94 12.248 21.1 11 19.419 11a2.81 2.81 0 00-2.774 1.954zM50.255 18c0-2.757 2.232-5 4.975-5 2.744 0 4.976 2.243 4.976 5s-2.232 5-4.976 5c-2.743 0-4.975-2.243-4.975-5zm-1.99 0v16h1.99V22.51c.878 1.54 3.22 2.457 4.975 2.49 3.9-.033 7.042-3.166 6.966-7 .076-3.867-3.066-7-6.966-7-3.823 0-6.965 3.133-6.965 7z"/><path d="M44.044 20.226l1.547 1.195c-.008.011-.866 1.108-1.942 3.233-1.315 2.596-1.89 4.03-1.896 4.044l-.04.089c-1.952 3.748-5.1 5.428-8.422 4.497a6.82 6.82 0 01-4.128-3.224 6.672 6.672 0 01-.608-5.162L33.104 9.06a5.429 5.429 0 012.62-3.271 5.548 5.548 0 014.198-.482c2.928.821 4.633 3.841 3.802 6.732l-.007.02-3.45 11.017.005-.021c-.626 2.175-2.813 3.403-4.98 2.796-1.042-.292-1.894-.949-2.402-1.849-.519-.918-.637-2.008-.33-3.073l3.151-10.753 1.887.54-3.15 10.747c-.161.563-.105 1.128.158 1.595.256.454.679.775 1.222.927 1.126.315 2.224-.313 2.554-1.46l.007-.022 3.445-10.997c.091-.318.135-.639.135-.955 0-1.53-1.021-2.94-2.584-3.378a3.572 3.572 0 00-2.703.31 3.495 3.495 0 00-1.688 2.107l-4.55 15.839c-.739 2.572.779 5.259 3.384 5.99 3.362.943 5.388-2.093 6.119-3.483.115-.281.707-1.704 1.945-4.148 1.175-2.32 2.113-3.512 2.152-3.561z" fill="#EF3124"/></g><defs><clipPath id="aclip0_1_2463"><path fill="#fff" transform="translate(.5)" d="M0 0h75v36H0z"/></clipPath></defs></svg></svg>